<svg width="635" height="282" viewBox="0 0 635 282" fill="none" xmlns="http://www.w3.org/2000/svg">
<g clip-path="url(#clip0_201_384)">
<path d="M412.397 176.129C430.981 176.129 446.047 161.076 446.047 142.506C446.047 123.936 430.981 108.883 412.397 108.883C393.813 108.883 378.747 123.936 378.747 142.506C378.747 161.076 393.813 176.129 412.397 176.129Z" stroke="#D4E1F3" stroke-linecap="round"/>
<path d="M411.874 126.755V233.439" stroke="#D4E1F3" stroke-linecap="round"/>
<path d="M411.874 150.223L424.404 137.701" stroke="#D4E1F3" stroke-linecap="round"/>
<path d="M411.643 162.261L402.727 153.353" stroke="#D4E1F3" stroke-linecap="round"/>
<path d="M411.643 142.737L402.727 133.831" stroke="#D4E1F3" stroke-linecap="round"/>
<path d="M426.119 152.286C427.259 152.286 428.183 151.363 428.183 150.223C428.183 149.084 427.259 148.161 426.119 148.161C424.979 148.161 424.055 149.084 424.055 150.223C424.055 151.363 424.979 152.286 426.119 152.286Z" stroke="#D4E1F3" stroke-linecap="round"/>
<path d="M392.568 135.892C393.708 135.892 394.633 134.969 394.633 133.83C394.633 132.69 393.708 131.767 392.568 131.767C391.428 131.767 390.504 132.69 390.504 133.83C390.504 134.969 391.428 135.892 392.568 135.892Z" stroke="#D4E1F3" stroke-linecap="round"/>
<path d="M388.371 239.822C391.887 233.061 399.563 229.572 406.971 231.374C414.367 233.175 419.586 239.801 419.598 247.417" stroke="#D4E1F3" stroke-linecap="round"/>
<path d="M371.998 247.417C371.876 243.913 373.677 240.62 376.694 238.832C379.71 237.043 383.469 237.043 386.486 238.832C389.503 240.62 391.303 243.913 391.182 247.417" stroke="#D4E1F3" stroke-linecap="round"/>
<path d="M415.645 236.703C419.245 235.167 423.381 235.541 426.654 237.696C429.926 239.852 431.897 243.503 431.897 247.417" stroke="#D4E1F3" stroke-linecap="round"/>
<path d="M403.979 235.768V246.191L399.004 241.217" stroke="#D4E1F3" stroke-linecap="round" stroke-linejoin="round"/>
<path d="M403.979 242.623L407.617 238.984" stroke="#D4E1F3" stroke-linecap="round"/>
<path d="M225.746 241.035C229.256 234.274 236.935 230.785 244.341 232.587C251.747 234.388 256.961 241.014 256.968 248.631" stroke="#D4E1F3" stroke-linecap="round"/>
<path d="M266.42 240.901C269.923 234.14 277.599 230.652 285.008 232.454C292.416 234.256 297.635 240.88 297.635 248.497" stroke="#D4E1F3" stroke-linecap="round"/>
<path d="M209.377 248.63C209.252 245.126 211.052 241.833 214.069 240.045C217.087 238.256 220.841 238.256 223.859 240.045C226.877 241.833 228.677 245.126 228.551 248.63" stroke="#D4E1F3" stroke-linecap="round"/>
<path d="M196.298 248.63C196.3 244.916 198.449 241.538 201.812 239.959C205.176 238.379 209.15 238.883 212.012 241.252" stroke="#D4E1F3" stroke-linecap="round"/>
<path d="M297.635 248.63C297.513 245.126 299.313 241.833 302.33 240.045C305.347 238.256 309.106 238.256 312.123 240.045C315.14 241.833 316.94 245.126 316.806 248.63" stroke="#D4E1F3" stroke-linecap="round"/>
<path d="M253.021 237.916C256.624 236.38 260.757 236.754 264.027 238.91C267.296 241.065 269.267 244.716 269.267 248.63" stroke="#D4E1F3" stroke-linecap="round"/>
<path d="M228.709 176.833V236.727" stroke="#D4E1F3" stroke-linecap="round"/>
<path d="M241.35 236.981V247.404L236.371 242.43" stroke="#D4E1F3" stroke-linecap="round" stroke-linejoin="round"/>
<path d="M279.911 236.981V247.404L274.924 242.43" stroke="#D4E1F3" stroke-linecap="round" stroke-linejoin="round"/>
<path d="M228.709 199.596L236.615 191.697" stroke="#D4E1F3" stroke-linecap="round"/>
<path d="M228.551 188.591L222.929 182.973" stroke="#D4E1F3" stroke-linecap="round"/>
<path d="M241.352 243.838L244.995 240.197" stroke="#D4E1F3" stroke-linecap="round"/>
<path d="M216.578 190.751V175.741C216.578 169.04 222.016 163.607 228.722 163.607C235.429 163.607 240.866 169.04 240.866 175.741V198.505C240.866 205.206 235.429 210.638 228.722 210.638C226.505 210.641 224.33 210.037 222.432 208.892" stroke="#D4E1F3" stroke-linecap="round"/>
<path d="M209.378 197.073V239.711" stroke="#D4E1F3" stroke-linecap="round"/>
<path d="M209.378 215.662L217.283 207.762" stroke="#D4E1F3" stroke-linecap="round"/>
<path d="M209.231 205.579L203.608 199.961" stroke="#D4E1F3" stroke-linecap="round"/>
<path d="M209.371 189.477H209.37C202.674 189.477 197.245 194.902 197.245 201.593V211.021C197.245 217.713 202.674 223.137 209.37 223.137H209.371C216.067 223.137 221.496 217.713 221.496 211.021V201.593C221.496 194.902 216.067 189.477 209.371 189.477Z" stroke="#D4E1F3" stroke-linecap="round"/>
<path d="M241.352 176.846H262.627V199.791" stroke="#D4E1F3" stroke-width="1.68" stroke-linecap="round"/>
<path d="M197.525 153.256H230.058V162.357" stroke="#D4E1F3" stroke-width="1.68" stroke-linecap="round"/>
<path d="M262.627 199.791H295.165V222.748" stroke="#D4E1F3" stroke-width="1.68" stroke-linecap="round"/>
<path d="M295.165 222.748H327.694V248.497" stroke="#D4E1F3" stroke-width="1.68" stroke-linecap="round"/>
<path d="M327.694 248.497H360.223" stroke="#D4E1F3" stroke-width="1.68" stroke-linecap="round"/>
<path d="M230.095 153.888V160.052" stroke="#D4E1F3" stroke-width="1.68" stroke-linecap="round"/>
<path d="M372.181 148.84C372.181 148.84 361.184 149.24 348.095 148.84C341.198 148.668 334.471 146.602 328.668 142.87C327.78 142.402 327.002 141.743 326.393 140.94C325.724 139.326 324.191 148.027 322.513 147.554L318.06 151L305.92 148.136L317.063 162.212C317.063 162.212 316.515 161.387 331.137 158.947C343.923 156.799 361.707 155.89 372.777 155.732L372.181 148.84Z" fill="#EBEBEB"/>
<path d="M372.181 148.84L381.024 148.706L381.073 152.371L372.57 153.742L372.181 148.84Z" fill="#D48E64"/>
<path d="M386.361 152.822C386.55 150.78 384.646 148.935 382.108 148.701C379.57 148.466 377.36 149.932 377.171 151.974C376.982 154.016 378.886 155.861 381.424 156.095C383.962 156.33 386.172 154.864 386.361 152.822Z" fill="#D48E64"/>
<path d="M325.419 147.808L317.013 126.682L313.206 131.888C313.072 132.067 312.951 132.253 312.841 132.446C312.038 133.985 311.929 135.796 312.537 137.42C313.157 139.044 314.447 140.327 316.065 140.94L317.013 141.316L317.999 151.024L325.419 147.808Z" fill="#D48E64"/>
<path d="M287.076 121.49C287.076 121.49 294.679 129.45 304.301 138.295C309.374 143.01 315.651 146.232 322.451 147.603C323.412 147.886 324.422 147.956 325.419 147.808C327.025 147.116 330.674 154.882 332.219 155.708L336.234 160.101L339.956 170.135L322.025 178.217C318.534 170.866 314.3 163.889 309.398 157.395C301.734 146.958 289.618 133.915 281.784 126.088L287.076 121.49Z" fill="#EBEBEB"/>
<path d="M339.323 244.165L346.063 239.978L349.079 245.937L340.516 246.446L339.323 244.165Z" fill="#D48E64"/>
<path d="M321.952 205.215L322.074 176.821C322.074 176.045 322.341 175.291 322.828 174.686C324.434 172.672 328.825 168.618 337.523 169.068C338.447 169.105 339.311 169.487 339.956 170.135L359.225 189.477L321.952 205.215Z" fill="#F2BD41"/>
<path d="M359.554 189.95C360.77 192.729 353.387 198.566 343.119 202.982C332.84 207.399 323.267 208.551 322.074 205.772C320.87 202.994 328.497 197.351 338.777 192.923C349.068 188.494 358.35 187.196 359.554 189.95Z" fill="#F19920"/>
<path d="M389.71 189.113L379.199 190.338L381.705 185.109L390.05 187.111L389.71 189.113Z" fill="#D48E64"/>
<path d="M380.926 185.496L357.862 197.898L354.577 192.522C350.977 193.434 347.449 194.621 344.019 196.078L353.738 207.326C355.32 209.158 358.081 209.38 359.93 207.823L382.642 188.033C383.189 187.509 383.274 186.672 382.848 186.047C382.423 185.422 381.62 185.19 380.926 185.496Z" fill="#D48E64"/>
<path d="M347.814 245.536C347.948 246.226 348.617 246.675 349.31 246.537C350.004 246.4 350.454 245.729 350.32 245.039L339.955 197.958C336.233 199.787 332.681 201.964 329.372 204.462L347.814 245.536Z" fill="#D48E64"/>
<path d="M352.303 188.784L350.637 189.076C347.218 189.793 343.873 190.822 340.649 192.147L344.043 196.078C347.474 194.621 351.002 193.434 354.602 192.522L352.303 188.784Z" fill="#CE835A"/>
<path d="M326.988 199.33L328.46 202.558L329.373 204.462C332.681 201.966 336.233 199.787 339.956 197.959L338.739 192.923C334.615 194.663 330.686 196.809 326.988 199.33Z" fill="#CE835A"/>
<path d="M317.014 126.682L320.883 136.391C322.087 142.955 322.805 149.597 323.048 156.266C323.048 165.973 335.322 175.462 344.641 163.547C353.971 151.631 327.646 125.409 327.646 125.409C327.646 125.409 320.786 121.441 316.966 126.623" fill="#674424"/>
<path d="M321.673 137.006C322.642 136.368 323.002 135.206 322.477 134.412C321.953 133.618 320.743 133.491 319.774 134.13C318.806 134.768 318.446 135.929 318.97 136.724C319.494 137.518 320.705 137.645 321.673 137.006Z" fill="#D48E64"/>
<path d="M287.076 121.49L280.823 115.241L278.22 117.825L283.365 124.741L287.076 121.49Z" fill="#D48E64"/>
<path d="M281.348 120.305C282.637 118.709 282.075 116.119 280.092 114.519C278.109 112.919 275.457 112.916 274.167 114.511C272.878 116.107 273.44 118.697 275.423 120.297C277.406 121.897 280.059 121.9 281.348 120.305Z" fill="#D48E64"/>
<path d="M336.453 245.913L339.604 243.982L341.514 244.517C342.232 244.724 342.962 244.831 343.716 244.832H350.321C350.601 245.408 350.565 246.09 350.236 246.636C349.895 247.182 349.299 247.513 348.655 247.513H337.232C336.417 247.513 335.748 246.349 336.453 245.913Z" fill="#C2C1C0"/>
<path d="M393.104 188.81L389.71 189.112L388.859 188.567C388.238 188.166 387.557 187.851 386.839 187.632L380.526 185.715C380.404 185.066 380.636 184.4 381.134 183.968C381.645 183.537 382.339 183.407 382.959 183.628L393.384 186.794C393.871 186.946 394.175 187.422 394.102 187.92C394.029 188.418 393.615 188.794 393.104 188.81Z" fill="#C2C1C0"/>
<path d="M251.588 64.6411V94.1393C251.588 96.7113 247.946 91.1661 245.431 91.0337L228.236 97.6218L247.556 65.261L251.588 64.6411Z" fill="#98705B"/>
<path d="M234.793 62.4703L227.944 73.0502L233.203 77.6497L237.55 67.2631L234.793 62.4703Z" fill="#98705B"/>
<path d="M240.756 77.6376L242.128 82.6127L233.094 85.5129L229.45 79.1667L232.656 74.6644L238.655 64.5331C239.212 63.5777 240.127 62.8824 241.199 62.6028C242.269 62.3233 243.408 62.4801 244.363 63.0404L250.434 66.5837C250.434 66.5837 246.961 75.6964 243.403 76.6056C242.724 76.7502 242.016 76.6566 241.4 76.3394L240.756 77.6376Z" fill="#E6C1A9"/>
<path d="M223.233 102.124C223.233 102.124 223.002 106.323 227.045 106.65C229.961 106.691 232.843 106.015 235.437 104.684L230.823 98.4472C230.823 98.4472 227.483 96.9667 223.245 101.202" fill="#A42422"/>
<path d="M229.499 97.8528L233.24 109.028L249.377 106.905L247.678 98.4715L229.499 97.8528Z" fill="#E6C1A9"/>
<path d="M261.85 176.821L269.887 168.631C271.103 167.417 271.687 166.652 271.018 165.464L268.877 161.605V161.496L261.594 164.735L259.396 175.45C259.239 176.087 259.526 176.75 260.099 177.071C260.672 177.39 261.389 177.288 261.85 176.821Z" fill="#DA513E"/>
<path d="M217.196 147.384L211.514 150.854C210.997 151.147 210.745 151.754 210.903 152.328C211.06 152.9 211.587 153.293 212.182 153.28H224.629C225.093 153.272 225.529 153.053 225.812 152.685C226.096 152.317 226.197 151.839 226.086 151.388L225.187 147.348H217.173L217.196 147.384Z" fill="#DA513E"/>
<path d="M220.013 125.142L223.001 123.686L218.046 113.397L209.546 117.861C207.262 119.017 206.27 121.746 207.276 124.098L210.991 132.823H221.775L220.013 125.142Z" fill="#E6C1A9"/>
<path d="M210.992 132.823L217.185 147.347H225.201L221.776 132.823H210.992Z" fill="#F2F3F4"/>
<path d="M256.518 126.343L244.168 131.063L253.543 149.167L263.1 145.102L256.518 126.343Z" fill="#E6C1A9"/>
<path d="M268.841 161.496L263.101 145.102L253.544 149.167L261.595 164.735L268.841 161.496Z" fill="#F2F3F4"/>
<mask id="mask0_201_384" style="mask-type:alpha" maskUnits="userSpaceOnUse" x="217" y="103" width="40" height="29">
<path d="M246.596 103.883C242.506 103.726 238.415 104.167 234.453 105.193C233.36 105.483 232.301 105.89 231.295 106.408L217.998 113.385L224.01 125.858L236.845 122.654L242.225 131.791L256.518 126.331L249.377 105.897C248.95 104.72 247.849 103.923 246.596 103.883Z" fill="#5B7FC0"/>
</mask>
<g mask="url(#mask0_201_384)">
<path d="M246.596 103.883C242.506 103.726 238.415 104.167 234.453 105.193C233.36 105.483 232.301 105.89 231.295 106.408L217.998 113.385L224.01 125.858L236.845 122.654L242.225 131.791L256.518 126.331L249.377 105.897C248.95 104.72 247.849 103.923 246.596 103.883Z" fill="#5B7FC0"/>
<path d="M231.149 113.857L241.702 132.314" stroke="#3868B2"/>
</g>
<path d="M244.168 131.063L245.079 132.823L258.182 131.063L256.518 126.343L244.168 131.063Z" fill="#DEB093"/>
<path d="M221.654 151.098C222.372 151.098 222.953 150.516 222.953 149.799C222.953 149.082 222.372 148.501 221.654 148.501C220.936 148.501 220.354 149.082 220.354 149.799C220.354 150.516 220.936 151.098 221.654 151.098Z" fill="#F2F3F4"/>
<path d="M266.737 167.247C267.455 167.247 268.036 166.666 268.036 165.948C268.036 165.231 267.455 164.65 266.737 164.65C266.019 164.65 265.438 165.231 265.438 165.948C265.438 166.666 266.019 167.247 266.737 167.247Z" fill="#F2F3F4"/>
<path d="M213.421 149.702L214.064 150.781" stroke="#B22024" stroke-linecap="round"/>
<path d="M215.412 148.548L216.056 149.617" stroke="#B22024" stroke-linecap="round"/>
<path d="M260.38 170.499L261.643 170.548" stroke="#B22024" stroke-linecap="round"/>
<path d="M260.938 167.781L262.189 167.83" stroke="#B22024" stroke-linecap="round"/>
<path d="M248.297 101.566C244.935 102.122 241.521 102.288 238.121 102.063C235.775 101.738 233.389 102.236 231.369 103.471L229.73 98.6174L228.405 95.4984L247.386 96.9181L248.297 101.566Z" fill="#DEB093"/>
<path d="M217.185 147.347L216.444 145.636C216.444 145.636 217.283 145.636 218.375 145.636C219.402 145.654 220.298 146.337 220.585 147.323L217.185 147.347Z" fill="#DA513E"/>
<path d="M261.594 164.735L260.78 163.17L262.493 162.43C263.444 162.049 264.534 162.335 265.177 163.133L261.594 164.735Z" fill="#DA513E"/>
<path d="M241.387 76.3393L236.82 73.7296L240.185 78.96L241.387 76.3393Z" fill="#DEB093"/>
<path d="M251.587 64.6424C251.138 69.3379 245.819 66.9713 241.872 66.9713C239.613 66.9713 236.359 68.3789 235.363 70.0782C234.587 71.4128 232.606 69.1313 232.606 67.4818C232.606 63.5739 238.241 57.1548 244.071 57.1548C248.065 57.1305 252.013 60.7223 251.587 64.6424Z" fill="#98705B"/>
<path d="M241.105 66.8923C241.214 65.9065 240.72 65.0427 240 64.9629C239.28 64.8831 238.607 65.6175 238.498 66.6033C238.389 67.5891 238.883 68.4529 239.603 68.5327C240.323 68.6125 240.996 67.878 241.105 66.8923Z" fill="#E6C1A9"/>
<path d="M196.833 58.0288L183.474 51.0518C183.019 51.8394 183.148 52.8337 183.789 53.4791L188.307 57.9924L188.441 58.5746C188.624 59.6005 189.256 60.4915 190.165 61.002L194.076 63.1376L196.833 58.0288Z" fill="#E6C1A9"/>
<path d="M270.751 105.874L278.293 113.579L274.948 116.709L267.32 109.44L270.751 105.874Z" fill="#E6C1A9"/>
<path d="M278.915 118.86C280.238 117.538 280.084 115.241 278.572 113.729C277.059 112.218 274.76 112.064 273.437 113.386C272.114 114.708 272.267 117.005 273.78 118.517C275.293 120.029 277.592 120.182 278.915 118.86Z" fill="#E6C1A9"/>
<mask id="mask1_201_384" style="mask-type:alpha" maskUnits="userSpaceOnUse" x="193" y="58" width="78" height="53">
<path d="M214.491 66.7295L196.834 58.0288L193.3 64.4479C193.3 64.4479 205.201 71.1454 210.446 74.7373C215.303 78.0739 219.056 84.2621 221.254 89.4317C223.453 94.6013 223.197 102.124 223.197 102.124C226.84 98.4836 230.155 97.5489 235.912 99.4184C239.854 100.543 243.967 100.954 248.055 100.631L246.731 93.6422L266.628 110.095L270.691 105.861L248.055 81.532C247.014 80.415 245.731 79.5507 244.303 79.0086L240.745 77.6375C240.684 77.8442 240.308 78.5966 240.235 78.8506C239.105 81.9088 236.361 83.3894 234.162 82.4911C231.965 81.5928 231.018 78.4629 232.159 75.5626C232.159 75.5626 232.536 74.8953 232.645 74.7008L214.491 66.7295Z" fill="#DA513E"/>
</mask>
<g mask="url(#mask1_201_384)">
<path d="M214.491 66.7295L196.834 58.0288L193.3 64.4479C193.3 64.4479 205.201 71.1454 210.446 74.7373C215.303 78.0739 219.056 84.2621 221.254 89.4317C223.453 94.6013 223.197 102.124 223.197 102.124C226.84 98.4836 230.155 97.5489 235.912 99.4184C239.854 100.543 243.967 100.954 248.055 100.631L246.731 93.6422L266.628 110.095L270.691 105.861L248.055 81.532C247.014 80.415 245.731 79.5507 244.303 79.0086L240.745 77.6375C240.684 77.8442 240.308 78.5966 240.235 78.8506C239.105 81.9088 236.361 83.3894 234.162 82.4911C231.965 81.5928 231.018 78.4629 232.159 75.5626C232.159 75.5626 232.536 74.8953 232.645 74.7008L214.491 66.7295Z" fill="#DA513E"/>
<path d="M252.195 98.9687L244.12 91.9916" stroke="#B8332A" stroke-linecap="round"/>
<path d="M222.505 97.2098C222.505 97.2098 220.307 82.4181 225.383 74.4711" stroke="#B8332A" stroke-linecap="round"/>
</g>
<path d="M559.214 97.8771C559.214 100.557 561.379 102.731 564.068 102.731C566.756 102.731 568.921 100.557 568.921 97.8771" stroke="#D4E1F3" stroke-linecap="round"/>
<path d="M594.041 182.706V202" stroke="#D4E1F3" stroke-linecap="round"/>
<path d="M564.092 87.4784V78.4143C564.092 70.1512 570.795 63.4525 579.067 63.4525C587.339 63.4525 594.041 70.1512 594.041 78.4143V145.042" stroke="#D4E1F3" stroke-linecap="round"/>
<path d="M583.421 247.477L585.343 210.808C585.598 205.872 589.674 202 594.625 202C599.564 202 603.639 205.875 603.882 210.808L605.804 247.477" stroke="#D4E1F3" stroke-linecap="round"/>
<path fill-rule="evenodd" clip-rule="evenodd" d="M575.527 97.8771H552.657C552.657 92.1338 557.316 87.4784 563.058 87.4784H565.114C567.875 87.4784 570.515 88.5736 572.474 90.5245C574.42 92.4742 575.515 95.1191 575.515 97.8771H575.527Z" stroke="#D4E1F3" stroke-linecap="round"/>
<path d="M577.582 188.882C591.404 188.882 602.61 177.685 602.61 163.874C602.61 150.062 591.404 138.865 577.582 138.865C563.759 138.865 552.554 150.062 552.554 163.874C552.554 177.685 563.759 188.882 577.582 188.882Z" stroke="#D4E1F3" stroke-linecap="round"/>
<path d="M553.047 158.074C543.145 163.457 530.858 161.562 523.049 153.443C515.227 145.326 513.803 132.99 519.582 123.312C525.348 113.634 536.88 109.003 547.743 112C558.606 114.998 566.124 124.883 566.112 136.148C566.112 137.897 565.929 139.642 565.564 141.354" stroke="#D4E1F3" stroke-linecap="round"/>
<path d="M577.193 153.063V247.696" stroke="#D4E1F3" stroke-linecap="round"/>
<path d="M577.193 169.613L586.512 160.306" stroke="#D4E1F3" stroke-linecap="round"/>
<path d="M577.022 178.556L570.393 171.943" stroke="#D4E1F3" stroke-linecap="round"/>
<path d="M577.022 164.044L570.393 157.43" stroke="#D4E1F3" stroke-linecap="round"/>
<path d="M540.687 132.957V245.791" stroke="#D4E1F3" stroke-linecap="round"/>
<path d="M540.687 141.717L550.005 132.41" stroke="#D4E1F3" stroke-linecap="round"/>
<path d="M540.516 136.148L533.887 129.522" stroke="#D4E1F3" stroke-linecap="round"/>
<path d="M550.005 124.232C551.145 124.232 552.069 123.308 552.069 122.169C552.069 121.03 551.145 120.106 550.005 120.106C548.865 120.106 547.94 121.03 547.94 122.169C547.94 123.308 548.865 124.232 550.005 124.232Z" stroke="#D4E1F3" stroke-linecap="round"/>
<path d="M564.214 166.313C565.354 166.313 566.278 165.39 566.278 164.25C566.278 163.111 565.354 162.188 564.214 162.188C563.074 162.188 562.149 163.111 562.149 164.25C562.149 165.39 563.074 166.313 564.214 166.313Z" stroke="#D4E1F3" stroke-linecap="round"/>
<path opacity="0.5" d="M477.601 247.841H512.355" stroke="#D4E1F3" stroke-linecap="round"/>
<path opacity="0.5" d="M520.006 247.841H562.145" stroke="#D4E1F3" stroke-linecap="round"/>
<path opacity="0.5" d="M439.488 247.841H465.156" stroke="#D4E1F3" stroke-linecap="round"/>
<path d="M446.896 175.195C431.216 188.07 434.841 217.276 434.841 217.276H467.309V192.814C467.309 187.402 467.856 181.286 468.914 178.86L453.49 168.837C451.458 171.121 449.244 173.246 446.896 175.195Z" fill="#A9D8B5"/>
<mask id="mask2_201_384" style="mask-type:alpha" maskUnits="userSpaceOnUse" x="444" y="217" width="24" height="32">
<path d="M464.669 217.276L459.536 239.372C459.281 240.471 459.779 241.607 460.752 242.175L466.251 245.438C466.92 245.829 467.248 246.621 467.042 247.371C466.835 248.12 466.154 248.638 465.375 248.63H449.585L444.172 217.337L464.669 217.276Z" fill="#ECA880"/>
</mask>
<g mask="url(#mask2_201_384)">
<path d="M464.669 217.276L459.536 239.372C459.281 240.471 459.779 241.607 460.752 242.175L466.251 245.438C466.92 245.829 467.248 246.621 467.042 247.371C466.835 248.12 466.154 248.638 465.375 248.63H449.585L444.172 217.337L464.669 217.276Z" fill="#ECA880"/>
<path d="M456.117 213.891L454.913 241.895L461.774 246.069C462.844 246.716 463.343 247.995 463.015 249.197C462.674 250.4 461.579 251.23 460.326 251.227H446.872" stroke="#D98758"/>
</g>
<path opacity="0.5" d="M444.999 222.359H463.477L464.669 217.276H444.11L444.999 222.359Z" fill="#D98758"/>
<path d="M467.746 140.977C467.746 140.977 464.875 130.627 475.118 128.03C485.349 125.433 488.171 136.523 489.229 142.202C490.288 147.881 505.64 163.048 492.502 169.735C479.364 176.42 475.045 166.592 472.904 162.212C470.763 157.831 467.746 140.977 467.746 140.977Z" fill="#CB6229"/>
<path d="M489.899 151.765L524.459 161.774C523.741 163.068 522.257 163.739 520.81 163.425L517.963 162.806L514.46 163.668C513.73 163.849 512.963 163.875 512.209 163.741L487.648 159.385L489.899 151.765Z" fill="#ECA880"/>
<path d="M466.373 146.146L467.954 142.287C468.623 141.476 469.39 140.743 470.217 140.103C473.051 137.859 473.063 139.679 474.268 137.967C474.998 136.924 477.126 136.608 478.306 136.123L483.476 133.975C482.929 136.843 481.883 139.592 480.374 142.094C479.28 143.677 477.272 144.349 475.448 143.743L474.487 143.38L472.893 146.753L478.404 148.597L475.034 157.576L465.667 153.221L465.448 147.954L466.373 146.171" fill="#ECA880"/>
<path d="M475.434 138.513C475.569 137.442 475.048 136.495 474.27 136.396C473.491 136.298 472.75 137.086 472.615 138.156C472.479 139.227 473 140.174 473.779 140.273C474.557 140.371 475.298 139.583 475.434 138.513Z" fill="#ECA880"/>
<path d="M476.651 148.003L491.115 151.716L489.23 160.973L477.734 157.856L476.603 150.441" fill="#81C995"/>
<mask id="mask3_201_384" style="mask-type:alpha" maskUnits="userSpaceOnUse" x="450" y="146" width="31" height="33">
<path d="M479.523 154.712C478.976 152.322 478.003 150.049 476.64 148.003C476.251 149.935 474.803 151.481 472.894 151.996C470.996 152.508 468.964 151.903 467.651 150.429C466.58 149.272 466.106 147.685 466.373 146.134C463.502 146.497 460.911 148.007 459.184 150.321C455.255 155.659 454.233 163.461 450.681 172.38L468.903 178.847C468.928 176.929 469.706 175.098 471.057 173.739L473.563 176.542L480.934 169.686L476.969 165.536C479.304 162.445 480.229 158.518 479.523 154.712Z" fill="#A9D8B5"/>
</mask>
<g mask="url(#mask3_201_384)">
<path d="M479.523 154.712C478.976 152.322 478.003 150.049 476.64 148.003C476.251 149.935 474.803 151.481 472.894 151.996C470.996 152.508 468.964 151.903 467.651 150.429C466.58 149.272 466.106 147.685 466.373 146.134C463.502 146.497 460.911 148.007 459.184 150.321C455.255 155.659 454.233 163.461 450.681 172.38L468.903 178.847C468.928 176.929 469.706 175.098 471.057 173.739L473.563 176.542L480.934 169.686L476.969 165.536C479.304 162.445 480.229 158.518 479.523 154.712Z" fill="#A9D8B5"/>
<path d="M477.395 165.184L472.407 159.47" stroke="#5BB874"/>
<path d="M470.606 174.576L463.174 166.252C463.174 166.252 459.439 162.03 459.609 159.069" stroke="#5BB874"/>
</g>
<path opacity="0.5" d="M474.486 143.38L470.483 141.899L473.233 146.037L474.486 143.38Z" fill="#D98758"/>
<path d="M522.513 244.469H544.288" stroke="#7198CF"/>
<path d="M520.967 242.418C520.967 243.189 521.6 243.813 522.366 243.813H535.419C535.954 243.808 536.417 243.458 536.575 242.949C536.733 242.439 536.526 241.889 536.088 241.593L527.841 237.455H519.751L520.967 242.418Z" fill="#C2C1C0"/>
<path d="M528.607 242.418C528.607 242.787 528.752 243.142 529.02 243.404C529.276 243.666 529.628 243.813 530.005 243.813H543.034C543.569 243.804 544.031 243.451 544.177 242.943C544.323 242.435 544.129 241.888 543.691 241.593L535.455 237.455H527.354L528.607 242.418Z" fill="#C2C1C0"/>
<path d="M526.892 237.455L528.108 242.223C528.157 242.549 528.327 242.843 528.583 243.04C528.85 243.237 529.179 243.319 529.507 243.266" stroke="#A5A4A4" stroke-width="0.91"/>
<path d="M539.251 240.416L540.176 239.299" stroke="#787878" stroke-width="0.91" stroke-linecap="round"/>
<path d="M500.166 199.184H517.051C519.18 199.186 521.248 199.829 523.012 201.028C525.08 202.451 526.564 204.557 527.221 206.975L535.821 237.625H519.825L512.538 215.99H498.707C492.6 215.99 487.637 211.036 487.637 204.923V200.325H500.166" fill="#7198CF"/>
<path d="M526.843 237.455L517.829 209.571H514.654" stroke="#547DBF"/>
<path d="M537.171 239.372L538.254 238.086" stroke="#787878" stroke-width="0.91" stroke-linecap="round"/>
<path d="M519.751 247.744C522.481 247.744 524.693 245.533 524.693 242.806C524.693 240.078 522.481 237.867 519.751 237.867C517.021 237.867 514.809 240.078 514.809 242.806C514.809 245.533 517.021 247.744 519.751 247.744Z" fill="#91B2DE"/>
<path d="M519.751 244.735C520.818 244.735 521.682 243.871 521.682 242.806C521.682 241.74 520.818 240.876 519.751 240.876C518.685 240.876 517.82 241.74 517.82 242.806C517.82 243.871 518.685 244.735 519.751 244.735Z" fill="#7198CF"/>
<path d="M535.238 158.526L533.071 157.634L529.038 167.417L531.205 168.31L535.238 158.526Z" fill="#6B6B6B"/>
<path d="M523.973 173.169L526.564 169.286L531.113 171.798L528.851 176.057L523.973 173.169Z" fill="#A25A4B"/>
<path d="M530.322 174.516C532.516 174.516 534.294 172.739 534.294 170.548C534.294 168.357 532.516 166.58 530.322 166.58C528.129 166.58 526.352 168.357 526.352 170.548C526.352 172.739 528.129 174.516 530.322 174.516Z" fill="#A25A4B"/>
<path d="M512.307 155.647C510.872 160.501 508.755 164.638 504.059 163.862C499.352 163.085 495.702 159.821 496.542 154.773C497.186 149.87 501.675 146.408 506.578 147.031C512.587 148.051 513.341 152.177 512.307 155.647Z" fill="#372422"/>
<path d="M507.404 169.274L508.085 165.184H508.219C508.863 165.259 509.508 165.172 510.116 164.93C511.807 164.219 512.914 162.578 512.951 160.744C513.194 158.463 513.097 156.161 512.647 153.912L512.16 153.84C509.703 153.434 507.343 155.036 506.82 157.479L506.455 159.239L501.686 158.657L500.47 162.49L499.46 167.247L498.815 172.38L507.611 173.848L507.404 169.274Z" fill="#A25A4B"/>
<path d="M505.464 159.709C505.677 158.427 504.965 157.24 503.873 157.059C502.782 156.877 501.724 157.77 501.51 159.053C501.297 160.335 502.009 161.522 503.101 161.703C504.192 161.884 505.25 160.992 505.464 159.709Z" fill="#A25A4B"/>
<path d="M495.081 247.733C508.468 247.733 519.32 236.889 519.32 223.513C519.32 210.137 508.468 199.293 495.081 199.293C481.695 199.293 470.843 210.137 470.843 223.513C470.843 236.889 481.695 247.733 495.081 247.733Z" fill="white" stroke="#D4E1F3" stroke-width="2" stroke-linecap="round"/>
<path d="M495.081 226.947C496.979 226.947 498.518 225.409 498.518 223.513C498.518 221.616 496.979 220.079 495.081 220.079C493.183 220.079 491.645 221.616 491.645 223.513C491.645 225.409 493.183 226.947 495.081 226.947Z" fill="#91B2DE"/>
<path d="M500.299 197.958L506.588 201.392C507.416 201.827 508.048 202.549 508.365 203.419C508.827 204.731 508.985 206.126 508.839 207.508C508.754 208.295 508.304 208.996 507.623 209.401L507.209 209.656C506.479 210.086 505.591 210.133 504.812 209.779C504.046 209.425 503.499 208.718 503.353 207.884L503.012 205.87L496.82 203.249L500.299 197.958Z" fill="#A25A4B"/>
<path opacity="0.25" d="M497.477 177.197L487.429 190.896L502.781 199.827" stroke="#547DBF"/>
<mask id="mask4_201_384" style="mask-type:alpha" maskUnits="userSpaceOnUse" x="476" y="164" width="55" height="43">
<path d="M530.59 176.566L518.353 194.864C517.793 195.669 516.941 196.206 515.968 196.347C515.007 196.488 514.022 196.218 513.268 195.605L511.212 193.917V199.184H503.171L498.427 206.914L478.817 196.296C477.491 195.573 476.554 194.303 476.25 192.825C475.946 191.347 476.311 189.811 477.248 188.628L493.244 168.522C496.03 165.391 498.378 165.027 499.217 165.003C499.339 164.986 499.461 164.986 499.57 165.003L499.874 165.088L506.078 166.993C506.833 167.222 507.538 167.557 508.195 167.987C508.256 168.021 508.317 168.061 508.365 168.108C509.46 168.869 510.348 169.907 510.92 171.118C513.438 176.517 514.922 185.048 514.922 185.048L523.717 172.053L530.59 176.566Z" fill="#D4E1F3"/>
</mask>
<g mask="url(#mask4_201_384)">
<path d="M530.59 176.566L518.353 194.864C517.793 195.669 516.941 196.206 515.968 196.347C515.007 196.488 514.022 196.218 513.268 195.605L511.212 193.917V199.184H503.171L498.427 206.914L478.817 196.296C477.491 195.573 476.554 194.303 476.25 192.825C475.946 191.347 476.311 189.811 477.248 188.628L493.244 168.522C496.03 165.391 498.378 165.027 499.217 165.003C499.339 164.986 499.461 164.986 499.57 165.003L499.874 165.088L506.078 166.993C506.833 167.222 507.538 167.557 508.195 167.987C508.256 168.021 508.317 168.061 508.365 168.108C509.46 168.869 510.348 169.907 510.92 171.118C513.438 176.517 514.922 185.048 514.922 185.048L523.717 172.053L530.59 176.566Z" fill="#D4E1F3"/>
<path opacity="0.25" d="M511.82 195.131V183.555" stroke="#547DBF"/>
</g>
<path d="M508.158 168.011C507.282 170.086 505.883 171.36 503.633 170.741C501.37 170.123 498.767 167.441 499.363 165.003C499.472 164.989 499.582 164.989 499.691 165.003L499.983 165.087L505.956 166.92C506.674 167.137 507.367 167.459 507.988 167.878C508.048 167.915 508.109 167.96 508.158 168.011Z" fill="#A25A4B"/>
<path d="M490.701 165.561L480.653 172.841L479.29 171.252L473.634 176.505L474.4 177.355L476.724 179.878C477.344 180.591 478.22 181.026 479.157 181.084C480.093 181.144 481.006 180.823 481.711 180.194L493.462 168.861L490.701 165.561Z" fill="#ECA880"/>
<path d="M493.463 168.849L498.316 165.816C498.316 165.816 497.684 162.175 494.679 162.248C493.487 162.337 492.416 162.98 491.772 163.983L490.701 165.561L493.463 168.849Z" fill="#ECA880"/>
<path d="M105.707 241.035C102.203 234.259 94.5163 230.76 87.1018 232.564C79.6874 234.366 74.47 241.004 74.4736 248.63" stroke="#D4E1F3" stroke-linecap="round"/>
<path d="M65.0372 240.901C61.5277 234.14 53.8493 230.652 46.4434 232.453C39.0375 234.256 33.8237 240.88 33.8164 248.497" stroke="#D4E1F3" stroke-linecap="round"/>
<path d="M33.8171 248.63C33.8171 243.336 29.5218 239.044 24.224 239.044C18.9251 239.044 14.6309 243.336 14.6309 248.63" stroke="#D4E1F3" stroke-linecap="round"/>
<path d="M78.4201 237.916C74.8144 236.369 70.6735 236.737 67.3963 238.894C64.1204 241.052 62.1484 244.709 62.1484 248.63" stroke="#D4E1F3" stroke-linecap="round"/>
<path d="M51.5352 236.981V247.404L56.5141 242.43" stroke="#D4E1F3" stroke-linecap="round" stroke-linejoin="round"/>
<path d="M183.984 205.554L206.511 241.58L200.306 245.051L183.984 222.323V205.554Z" fill="#208E45"/>
<path d="M207.773 249.079C207.773 248.254 206.559 244.505 207.3 244.505H212.363C214.892 244.505 216.942 246.553 216.942 249.079" fill="#ECA880"/>
<path d="M158.847 222.663L138.908 212.41C134.934 210.368 130.07 211.421 127.298 214.922L108.124 239.19L116.479 245.366L135.35 227.687L147.773 236.593L162.005 230.393L158.847 222.663Z" fill="#F7AB1B"/>
<path d="M180.281 203.394L182.14 196.284L183.5 188.324L175.703 185.363L170.275 185.873C170.275 185.873 166.583 189.258 168.587 196.903C170.591 204.547 172.996 207.993 172.996 207.993L180.281 203.394Z" fill="#ECA880"/>
<path opacity="0.5" d="M172.788 249.055H192.278" stroke="#D4E1F3" stroke-linecap="round"/>
<path d="M206.511 241.58L211.089 249.055H204.701L201.532 244.359L206.511 241.58Z" fill="#ECA880"/>
<path opacity="0.5" d="M82.8652 249.055H127.554" stroke="#D4E1F3" stroke-linecap="round"/>
<path d="M168.903 249.079H135.677C132.691 249.079 130.269 246.664 130.262 243.68C130.263 241.275 131.85 239.16 134.159 238.486L162.006 230.368L173.7 243.923C174.506 244.855 174.687 246.174 174.162 247.29C173.638 248.404 172.504 249.106 171.27 249.079H168.903Z" fill="#F2BD41"/>
<mask id="mask5_201_384" style="mask-type:alpha" maskUnits="userSpaceOnUse" x="154" y="202" width="35" height="48">
<path d="M188.21 217.422C187.822 208.442 182.502 202.241 178.276 202.241C175.925 202.159 173.614 202.872 171.72 204.268L171.064 206.016H163.073C163.073 206.016 159.017 216.682 156.637 222.276C154.257 227.869 154.208 233.62 158.167 233.62C159.55 233.553 160.898 233.162 162.101 232.48C162.792 238.918 165.908 244.854 170.821 249.079C188.72 249.079 188.61 226.389 188.21 217.422Z" fill="#55A55C"/>
</mask>
<g mask="url(#mask5_201_384)">
<path d="M188.21 217.422C187.822 208.442 182.502 202.241 178.276 202.241C175.925 202.159 173.614 202.872 171.72 204.268L171.064 206.016H163.073C163.073 206.016 159.017 216.682 156.637 222.276C154.257 227.869 154.208 233.62 158.167 233.62C159.55 233.553 160.898 233.162 162.101 232.48C162.792 238.918 165.908 244.854 170.821 249.079C188.72 249.079 188.61 226.389 188.21 217.422Z" fill="#55A55C"/>
<path d="M160.073 234.518C160.073 234.518 163.498 232.916 180.536 217.931L160.073 234.518Z" fill="#34A851"/>
<path d="M160.073 234.518C160.073 234.518 163.498 232.916 180.536 217.931" stroke="#1A8140"/>
<path d="M171.781 201.902L166.303 219.787" stroke="#1A8140"/>
</g>
<path d="M178.945 179.842C175.305 179.418 171.733 181.056 169.68 184.089C169.312 184.637 169.206 185.319 169.391 185.952C169.576 186.585 170.033 187.103 170.639 187.366L172.218 188.045C174.05 188.821 175.427 190.389 175.959 192.305L176.298 193.518L176.735 193.591C176.757 192.928 176.982 192.289 177.379 191.758C178.085 190.571 179.609 190.162 180.816 190.836C181.32 191.279 181.574 191.941 181.496 192.607C181.496 193.7 180.573 194.548 180.597 195.629C180.646 196.31 180.781 196.983 180.997 197.631C180.997 197.716 181.326 198.844 181.301 198.844C185.549 197.246 188.149 192.948 187.589 188.446C187.03 183.945 183.456 180.413 178.945 179.903V179.842Z" fill="#CB6229"/>
<mask id="mask6_201_384" style="mask-type:alpha" maskUnits="userSpaceOnUse" x="164" y="194" width="14" height="13">
<path d="M168.065 194.063L168.465 196.392C168.728 197.404 169.716 198.05 170.749 197.885L175.679 197.181C176.331 197.134 176.922 197.565 177.076 198.201C177.211 198.786 176.944 199.389 176.42 199.682L172.46 201.842L171.064 206.016H164.373L165.236 199.645C165.493 197.706 166.341 195.893 167.664 194.451L168.065 194.063Z" fill="#ECA880"/>
</mask>
<g mask="url(#mask6_201_384)">
<path d="M168.065 194.063L168.465 196.392C168.728 197.404 169.716 198.05 170.749 197.885L175.679 197.181C176.331 197.134 176.922 197.565 177.076 198.201C177.211 198.786 176.944 199.389 176.42 199.682L172.46 201.842L171.064 206.016H164.373L165.236 199.645C165.493 197.706 166.341 195.893 167.664 194.451L168.065 194.063Z" fill="#ECA880"/>
<path d="M167.264 192.753L167.895 196.392C168.093 197.575 169.125 198.436 170.324 198.42L174.999 197.934C175.655 197.934 176.311 197.788 176.469 198.432C176.615 199.014 175.959 199.341 175.424 199.645L171.999 201.489L169.886 207.762" stroke="#D98758"/>
</g>
<path d="M94.584 245.827C93.7227 245.975 93.1193 246.76 93.1984 247.63C93.2786 248.499 94.0134 249.163 94.8881 249.152L106.923 249.213C108.078 249.233 109.195 248.797 110.031 248L114.354 243.789L108.125 239.177L103.765 244.14L94.584 245.827Z" fill="#C2C1C0"/>
</g>
<defs>
<clipPath id="clip0_201_384">
<rect width="635" height="282" fill="white"/>
</clipPath>
</defs>
</svg>
